# xmcd
#
# Track frame offsets: 
#        150
#        13655
#        23478
#        37102
#        47652
#        56459
#        68905
#        78859
#        92548
#        101297
#        112411
#        125645
#        137122
#
# Disc length: 1973 seconds
#
# Revision: 2
# Processed by: cddbd v1.5.2PL0 Copyright (c) Steve Scherf et al.
# Submitted via: ExactAudioCopyFreeDBPlugin 1.0
#
DISCID=a807b30d
DTITLE=Patsy Cline - Real Gone Music - Three Classic Albums plus Bonus
DTITLE=Singles - CD2-4
DYEAR=2013
DGENRE=Country
TTITLE0=She's got you  1962)
TTITLE1=Heartaches  (1962)
TTITLE2=That's my desire  (1962)
TTITLE3=Your cheatin' heart  (1962)
TTITLE4=Anytime  (1962)
TTITLE5=You made me love you (I didn't want to do it)  (1962)
TTITLE6=Strange  (1962)
TTITLE7=You belong to me  (1962)
TTITLE8=You were only fooling (While I was falling in love)  (1962)
TTITLE9=Half as much  (1962)
TTITLE10=I can't help it (If I'm still in love with you)  (1962)
TTITLE11=Lonely street  (1962)
TTITLE12=Shoes [with Ernest Tubb and his Texas Troubadours]  (1962)
EXTD=
EXTT0=
EXTT1=
EXTT2=
EXTT3=
EXTT4=
EXTT5=
EXTT6=
EXTT7=
EXTT8=
EXTT9=
EXTT10=
EXTT11=
EXTT12=
PLAYORDER=
